<svg width="80" height="80" viewBox="0 0 80 80" fill="none" xmlns="http://www.w3.org/2000/svg">
<circle opacity="0.15" cx="40" cy="40" r="40" fill="#BCD6F1"/>
<path d="M42.9873 25.3047C42.9873 27.9109 45.1076 30.0312 47.7139 30.0312C50.3201 30.0312 52.4404 27.9109 52.4404 25.3047C52.4404 22.6985 50.3201 20.5781 47.7139 20.5781C45.1076 20.5781 42.9873 22.6985 42.9873 25.3047ZM50.7217 25.3047C50.7217 26.9632 49.3724 28.3125 47.7139 28.3125C46.0554 28.3125 44.7061 26.9632 44.7061 25.3047C44.7061 23.6462 46.0554 22.2969 47.7139 22.2969C49.3724 22.2969 50.7217 23.6462 50.7217 25.3047Z" fill="#294B7B"/>
<path d="M35.7031 18.8594C35.7031 18.3847 35.3184 18 34.8438 18H21.9531C21.4785 18 21.0938 18.3847 21.0938 18.8594V26.5938C21.0938 27.0684 21.4785 27.4531 21.9531 27.4531H33.9844V30.9989C32.5389 31.3696 31.4062 32.6901 31.4062 34.3281C31.4062 35.9269 32.5034 37.2742 33.9844 37.6568V54.0426C33.9844 54.5172 34.3691 52.1702 34.8438 52.1702C35.3184 52.1702 35.7031 54.5172 35.7031 54.0426V37.7656H41.7188V61.1406C41.7188 61.6153 42.1035 62 42.5781 62H52.8906C53.3653 62 53.75 61.6153 53.75 61.1406V48.1324C54.2559 48.4257 54.8431 48.5938 55.4688 48.5938C57.3642 48.5938 58.9062 47.0517 58.9062 45.1562V36.9062C58.9062 33.5892 56.2076 30.8906 52.8906 30.8906H35.7031C35.7031 29.1136 35.7031 19.9969 35.7031 18.8594ZM22.8125 19.7188H33.9844V25.7344H22.8125V19.7188ZM57.1875 36.9062V45.1562C57.1875 46.104 56.4165 46.875 55.4688 46.875C54.521 46.875 53.75 46.104 53.75 45.1562V36.9062C53.75 36.4316 53.3653 36.0469 52.8906 36.0469C52.416 36.0469 52.0312 36.4316 52.0312 36.9062V60.2812H48.5938V47.7344C48.5938 47.2597 48.209 46.875 47.7344 46.875C47.2597 46.875 46.875 47.2597 46.875 47.7344V60.2812H43.4375V36.9062C43.4375 36.4316 43.0528 36.0469 42.5781 36.0469H34.8438C33.896 36.0469 33.125 35.2758 33.125 34.3281C33.125 33.3789 33.8945 32.6094 34.8438 32.6094H52.8906C55.2599 32.6094 57.1875 34.537 57.1875 36.9062Z" fill="#294B7B"/>
<path d="M33.9844 60.2812H32.2656C31.791 60.2812 31.4062 60.666 31.4062 61.1406C31.4062 61.6153 31.791 62 32.2656 62H37.4219C37.8965 62 38.2812 61.6153 38.2812 61.1406C38.2812 60.666 37.8965 60.2812 37.4219 60.2812H35.7031V52.8906C35.7031 52.416 35.3184 52.0312 34.8438 52.0312C34.3691 52.0312 33.9844 52.416 33.9844 52.8906V60.2812Z" fill="#294B7B"/>
</svg>
