<svg width="80" height="80" viewBox="0 0 80 80" fill="none" xmlns="http://www.w3.org/2000/svg">
<circle opacity="0.15" cx="40" cy="40" r="40" fill="#BCD6F1"/>
<path d="M47.0586 44.791C46.5948 44.791 46.2188 45.167 46.2188 45.6309V51.4258C46.2188 53.7412 44.335 55.625 42.0195 55.625H32.9519C32.4882 55.625 32.1124 56.0007 32.1121 56.4643L32.1109 58.134L30.1063 56.1296C29.9766 55.8317 29.6796 55.625 29.3361 55.625H23.8789C21.5635 55.625 19.6797 53.7412 19.6797 51.4258V38.4922C19.6797 36.1767 21.5635 34.293 23.8789 34.293H32.3613C32.8251 34.293 33.2012 33.917 33.2012 33.4531C33.2012 32.9893 32.8251 32.6133 32.3613 32.6133H23.8789C20.6373 32.6133 18 35.2506 18 38.4922V51.4258C18 54.6674 20.6373 57.3047 23.8789 57.3047H28.906L32.3554 60.754C32.516 60.9147 32.7308 61 32.9494 61C33.0575 61 33.1666 60.9791 33.2703 60.9362C33.5841 60.8063 33.7888 60.5003 33.7891 60.1607L33.7911 57.3047H42.0195C45.2612 57.3047 47.8984 54.6674 47.8984 51.4258V45.6309C47.8984 45.167 47.5224 44.791 47.0586 44.791Z" fill="#294B7B"/>
<path d="M48.7933 18H46.6677C39.9369 18 34.4609 23.4759 34.4609 30.2068C34.4609 36.9376 39.9369 42.4135 46.6676 42.4135H48.7932C49.8438 42.4135 50.8836 42.2801 51.8914 42.0163L55.0313 45.1545C55.192 45.315 55.4066 45.4003 55.6252 45.4003C55.7334 45.4003 55.8426 45.3794 55.9465 45.3363C56.2603 45.2063 56.4648 44.9001 56.4648 44.5605V39.7015C57.7942 38.6249 58.8985 37.2649 59.6735 35.7456C60.5538 34.0201 61 32.1566 61 30.2068C61 23.4759 55.524 18 48.7933 18ZM55.1197 38.6211C54.9091 38.7798 54.7852 39.0282 54.7852 39.292V42.5338L52.73 40.4797C52.5701 40.3199 52.3556 40.2339 52.1362 40.2339C52.0539 40.2339 51.9708 40.246 51.8896 40.271C50.89 40.5782 49.8482 40.7339 48.7933 40.7339H46.6677C40.863 40.7339 36.1406 36.0115 36.1406 30.2068C36.1406 24.4021 40.8631 19.6797 46.6677 19.6797H48.7933C54.598 19.6797 59.3203 24.4021 59.3203 30.2068C59.3203 33.5436 57.7893 36.6105 55.1197 38.6211Z" fill="#294B7B"/>
<path d="M41.0957 44.0352H23.375C22.9112 44.0352 22.5352 44.4112 22.5352 44.875C22.5352 45.3388 22.9112 45.7148 23.375 45.7148H41.0957C41.5595 45.7148 41.9355 45.3388 41.9355 44.875C41.9355 44.4112 41.5595 44.0352 41.0957 44.0352Z" fill="#294B7B"/>
<path d="M37.7923 48.7383H23.375C22.9112 48.7383 22.5352 49.1143 22.5352 49.5781C22.5352 50.042 22.9112 50.418 23.375 50.418H37.7923C38.2562 50.418 38.6322 50.042 38.6322 49.5781C38.6322 49.1143 38.2561 48.7383 37.7923 48.7383Z" fill="#294B7B"/>
<path d="M35.6367 39.332H23.375C22.9112 39.332 22.5352 39.708 22.5352 40.1719C22.5352 40.6357 22.9112 41.0117 23.375 41.0117H35.6367C36.1006 41.0117 36.4766 40.6357 36.4766 40.1719C36.4766 39.708 36.1005 39.332 35.6367 39.332Z" fill="#294B7B"/>
<path d="M48.0863 24C48.9692 24 49.6756 24.2676 50.2054 24.8027C50.7351 25.3378 51 26.0811 51 27.0324C51 28.0631 50.713 28.841 50.1391 29.3662C49.5741 29.8815 48.8015 30.1491 47.8214 30.1689V31.0889C47.8214 31.4839 47.5012 31.8041 47.1063 31.8041C46.7113 31.8041 46.3911 31.4839 46.3911 31.0889V29.5C46.3911 29.2455 46.5974 29.0392 46.8519 29.0392H47.0268C47.7949 29.0392 48.3998 28.9005 48.8412 28.623C49.2827 28.3356 49.5034 27.8104 49.5034 27.0473C49.5034 26.532 49.371 26.1306 49.1061 25.8432C48.8412 25.5459 48.4836 25.3973 48.0333 25.3973C47.5566 25.3973 47.1725 25.5509 46.8811 25.8581C46.7451 26.0015 46.6408 26.1655 46.5683 26.35C46.4213 26.7238 46.1185 27.0622 45.7169 27.0622C45.3195 27.0622 44.9852 26.7399 45.0572 26.3491C45.1145 26.0383 45.2147 25.7507 45.358 25.4865C45.6053 25.0207 45.9629 24.659 46.4308 24.4014C46.8988 24.1338 47.4506 24 48.0863 24ZM47.1195 33.127C47.5949 33.127 47.9804 33.5124 47.9804 33.9879V34.1391C47.9804 34.6146 47.5949 35 47.1195 35C46.6441 35 46.2586 34.6146 46.2586 34.1391V33.9879C46.2586 33.5124 46.6441 33.127 47.1195 33.127Z" fill="#294B7B"/>
</svg>
