<svg width="80" height="80" viewBox="0 0 80 80" fill="none" xmlns="http://www.w3.org/2000/svg">
<circle opacity="0.15" cx="40" cy="40" r="40" fill="#BCD6F1"/>
<g clip-path="url(#clip0)">
<path d="M39.5557 28.4484C39.541 28.4476 39.5251 28.4469 39.5094 28.4456C38.1402 28.327 37.192 27.8856 36.4317 27.0114L36.4179 26.995C36.281 26.8303 36.1103 26.7477 35.9185 26.7494C35.7242 26.7512 35.558 26.8366 35.4242 27.0034L35.4121 27.0184C34.6555 27.8868 33.7072 28.327 32.3395 28.4456C32.3224 28.4471 32.3065 28.4477 32.2918 28.4484C31.6351 28.4814 31.5396 28.9744 31.5291 29.184C31.3559 32.5488 32.6342 35.0098 35.5547 36.9309C35.67 37.0113 35.7964 37.0515 35.9232 37.0515C36.0505 37.0515 36.1782 37.0108 36.2952 36.9294C39.2129 35.0131 40.4921 32.5521 40.3204 29.1774C40.3072 28.969 40.2066 28.4811 39.5557 28.4484ZM35.9238 35.7298C33.6749 34.1546 32.6731 32.2457 32.7161 29.6141C34.0438 29.4561 35.0809 29.0052 35.9248 28.2152C36.7689 29.0054 37.8056 29.4564 39.1334 29.6144C39.1748 32.2463 38.1731 34.1553 35.9238 35.7298Z" fill="#294B7B"/>
<path d="M48.7258 26.8036H43.5244C43.1926 26.8036 42.9238 27.0724 42.9238 27.4042C42.9238 27.7359 43.1926 28.0048 43.5244 28.0048H48.7258C49.0576 28.0048 49.3264 27.7359 49.3264 27.4042C49.3264 27.0724 49.0575 26.8036 48.7258 26.8036Z" fill="#294B7B"/>
<path d="M48.7258 29.7183H43.5244C43.1926 29.7183 42.9238 29.9871 42.9238 30.3188C42.9238 30.6506 43.1926 30.9194 43.5244 30.9194H48.7258C49.0576 30.9194 49.3264 30.6506 49.3264 30.3188C49.3264 29.9871 49.0575 29.7183 48.7258 29.7183Z" fill="#294B7B"/>
<path d="M48.7258 32.6327H43.5244C43.1926 32.6327 42.9238 32.9015 42.9238 33.2333C42.9238 33.565 43.1926 33.8339 43.5244 33.8339H48.7258C49.0576 33.8339 49.3264 33.565 49.3264 33.2333C49.3264 32.9015 49.0575 32.6327 48.7258 32.6327Z" fill="#294B7B"/>
<path d="M54.3029 36.575L53.2531 36.5766V23.9193C53.2531 23.1806 52.6511 22.5797 51.9111 22.5797H51.6225V20.4643C51.6225 19.6569 50.9645 19 50.1557 19H25.4952C24.6864 19 24.0285 19.6569 24.0285 20.4643V41.508C22.8897 41.6411 22.0029 42.6113 22.0029 43.7852V55.4133C22.0029 56.678 23.0319 57.7068 24.2965 57.7068H32.6404C32.9721 57.7068 31.752 57.438 31.752 57.1062C31.752 56.7745 32.6843 56.5056 32.3526 56.5056H24.2965C23.6942 56.5056 23.2041 56.0156 23.2041 55.4133V43.7852C23.2041 43.183 23.6942 42.693 24.2965 42.693H38.8313C40.0671 42.693 41.6022 42.6929 41.9041 40.9194L42.6722 38.5993C42.9375 37.7949 43.2429 37.7938 43.6642 37.7923L54.304 37.7762C55.1266 37.7762 55.796 38.4453 55.796 39.2679V55.4133C55.796 56.0156 55.306 56.5056 54.7036 56.5056H53.6134V50.4549C53.6134 49.2094 52.6001 48.1962 51.3545 48.1962H51.2298V46.6165C51.2298 45.082 49.9823 43.8335 48.4489 43.8335H44.9773C43.4427 43.8335 42.1941 45.082 42.1941 46.6165V48.1962H42.0695C40.8239 48.1962 39.8105 49.2094 39.8105 50.4549V56.5056H32.3526C32.0209 56.5056 31.752 56.7745 31.752 57.1062C31.752 57.438 32.0209 57.7068 32.3526 57.7068H39.8105V57.7413C39.8105 58.9869 40.8239 60.0001 42.0695 60.0001H51.3544C52.6 60.0001 53.6133 58.9869 53.6133 57.7413V57.7068H54.7034C55.9681 57.7068 56.997 56.678 56.997 55.4133V39.2679C56.9971 37.783 55.7889 36.575 54.3029 36.575ZM43.6611 36.5912C42.8733 36.594 42.0042 36.79 41.5317 38.2224L40.7487 40.5872C40.7382 40.619 40.7304 40.6518 40.7253 40.6848C40.6199 41.3711 40.3367 41.4918 38.8313 41.4918H28.9714V23.9193C28.9714 23.8442 29.0359 23.7808 29.1123 23.7808H37.9791C38.3108 23.7808 37.3785 23.512 37.3785 23.1802C37.3785 22.8485 38.3108 22.5797 37.9791 22.5797H29.1123C28.3723 22.5797 27.7702 23.1806 27.7702 23.9193V41.4918H25.2297V20.4643C25.2297 20.3217 25.3513 20.2012 25.4952 20.2012H50.1557C50.2997 20.2012 50.4212 20.3217 50.4212 20.4643V22.5797H37.9791C37.6474 22.5797 37.3785 22.8485 37.3785 23.1802C37.3785 23.512 37.6474 23.7808 37.9791 23.7808H51.9111C51.9874 23.7808 52.0519 23.8442 52.0519 23.9193V36.5784L43.6611 36.5912ZM43.3954 46.6165C43.3954 45.7443 44.1051 45.0347 44.9774 45.0347H48.449C49.3201 45.0347 50.0288 45.7443 50.0288 46.6165V48.1962H43.3955L43.3954 46.6165ZM52.4122 57.7412C52.4122 58.3244 51.9377 58.7988 51.3544 58.7988H42.0695C41.4863 58.7988 41.0118 58.3244 41.0118 57.7412V50.4549C41.0118 49.8718 41.4863 49.3973 42.0695 49.3973H51.3544C51.9377 49.3973 52.4122 49.8718 52.4122 50.4549V57.7412Z" fill="#294B7B"/>
<path d="M46.7117 51.5541C45.5769 51.5541 44.6538 52.4783 44.6538 53.6142C44.6538 54.5401 45.2685 55.3249 46.1112 55.5825V56.8475C46.1112 57.1792 46.38 57.4481 46.7117 57.4481C47.0435 57.4481 47.3123 57.1792 47.3123 56.8475V55.5825C48.155 55.3249 48.7697 54.5401 48.7697 53.6142C48.7697 52.4783 47.8464 51.5541 46.7117 51.5541ZM46.7117 54.4709C46.2394 54.4709 45.855 54.0866 45.855 53.6142C45.855 53.1406 46.2394 52.7552 46.7117 52.7552C47.1842 52.7552 47.5686 53.1406 47.5686 53.6142C47.5686 54.0866 47.1842 54.4709 46.7117 54.4709Z" fill="#294B7B"/>
</g>
<defs>
<clipPath id="clip0">
<rect width="41" height="41" fill="white" transform="translate(19 19)"/>
</clipPath>
</defs>
</svg>
