<svg width="94" height="94" viewBox="0 0 94 94" fill="none" xmlns="http://www.w3.org/2000/svg">
<circle cx="47" cy="47" r="47" fill="#ECF4FC"/>
<rect x="25.8501" y="21.15" width="41.125" height="51.7" rx="5" fill="#24578B"/>
<path d="M43.1766 41.125C43.5512 41.125 43.8549 41.4287 43.8549 41.8033C43.8549 42.178 43.5512 42.4817 43.1766 42.4817H40.3531V53.2493C40.3531 53.6915 39.9946 54.05 39.5524 54.05C39.1103 54.05 38.7518 53.6915 38.7518 53.2493V42.4817H35.9283C35.5537 42.4817 35.25 42.178 35.25 41.8033C35.25 41.4287 35.5537 41.125 35.9283 41.125H43.1766Z" fill="white"/>
<path d="M57.6067 41.345C58.2381 41.345 58.75 41.8569 58.75 42.4883V53.2493C58.75 53.6915 58.3915 54.05 57.9493 54.05C57.5071 54.05 57.1487 53.6915 57.1487 53.2493V43.9117L53.5154 53.3836C53.3614 53.785 52.976 54.05 52.546 54.05C52.1172 54.05 51.7324 53.7863 51.5777 53.3863L47.9279 43.9483V53.2493C47.9279 53.6915 47.5694 54.05 47.1272 54.05C46.685 54.05 46.3266 53.6915 46.3266 53.2493V42.4912C46.3266 41.8582 46.8397 41.345 47.4727 41.345C47.9394 41.345 48.3594 41.6279 48.5348 42.0603L52.5735 52.015L56.5448 42.0645C56.7182 41.63 57.1388 41.345 57.6067 41.345Z" fill="white"/>
</svg>
