<svg width="94" height="94" viewBox="0 0 94 94" fill="none" xmlns="http://www.w3.org/2000/svg">
<circle cx="47" cy="47" r="47" fill="#ECF4FC"/>
<rect x="25.8501" y="21.15" width="41.125" height="51.7" rx="5" fill="#24578B"/>
<path d="M44.8552 35.7997C39.8586 35.7997 35.8081 39.8502 35.8081 44.8468C35.8081 49.8433 39.8586 53.8939 44.8552 53.8939C49.8518 53.8939 53.9023 49.8433 53.9023 44.8468C53.8968 39.8525 49.8495 35.8051 44.8552 35.7997ZM44.8552 36.6613C47.5163 36.6634 50.01 37.9604 51.5397 40.138L50.4627 41.215C50.2006 41.0564 49.9005 40.9715 49.5941 40.9694C48.6424 40.9694 47.8709 41.741 47.8709 42.6927C47.8724 42.9994 47.9568 43.2999 48.1152 43.5625L45.2942 46.3835C44.76 46.0578 44.0887 46.0578 43.5546 46.3835L41.5952 44.4241C41.7536 44.1616 41.838 43.861 41.8395 43.5543C41.8407 42.6045 41.0717 41.8336 40.1218 41.8324C39.3363 41.8314 38.65 42.3628 38.4542 43.1235H36.8558C37.6715 39.3567 41.0011 36.667 44.8552 36.6613ZM50.4558 42.6927C50.4558 43.1686 50.07 43.5543 49.5941 43.5543C49.1183 43.5543 48.7325 43.1686 48.7325 42.6927C48.7325 42.2168 49.1183 41.8311 49.5941 41.8311C50.07 41.8311 50.4558 42.2168 50.4558 42.6927ZM45.286 47.8625C45.286 48.3384 44.9003 48.7241 44.4244 48.7241C43.9485 48.7241 43.5628 48.3384 43.5628 47.8625C43.5628 47.3866 43.9485 47.0008 44.4244 47.0008C44.9003 47.0008 45.286 47.3866 45.286 47.8625ZM40.9779 43.5543C40.9779 44.0302 40.5921 44.416 40.1162 44.416C39.6404 44.416 39.2546 44.0302 39.2546 43.5543C39.2546 43.0784 39.6404 42.6927 40.1162 42.6927C40.5921 42.6927 40.9779 43.0784 40.9779 43.5543ZM48.8324 52.004C47.6157 52.6795 46.2468 53.0334 44.8552 53.0322C40.3376 53.0352 36.6728 49.3755 36.6697 44.8579C36.6695 44.5664 36.6849 44.275 36.7158 43.9851H38.4542C38.65 44.7436 39.3329 45.2746 40.1162 45.2775C40.4229 45.276 40.7235 45.1916 40.9861 45.0333L42.9454 46.9926C42.787 47.2552 42.7026 47.5557 42.7011 47.8624C42.7011 48.8141 43.4727 49.5857 44.4244 49.5857C45.3761 49.5857 46.1476 48.8141 46.1476 47.8624C46.1461 47.5557 46.0617 47.2552 45.9034 46.9926L48.7243 44.1716C48.9869 44.33 49.2875 44.4144 49.5941 44.4159C50.5459 44.4159 51.3174 43.6444 51.3174 42.6926C51.3159 42.386 51.2315 42.0854 51.0731 41.8228L52.0123 40.8841C54.2049 44.8329 52.7811 49.8115 48.8324 52.004Z" fill="white" stroke="white" stroke-width="0.2"/>
<path d="M55.6257 38.3845C56.409 38.3816 57.0919 37.8506 57.2877 37.0921H59.503C59.7409 37.0921 59.9338 36.8992 59.9338 36.6613C59.9338 36.4233 59.7409 36.2305 59.503 36.2305H57.2877C57.0919 35.4719 56.409 34.941 55.6257 34.938C54.6739 34.938 53.9024 35.7096 53.9024 36.6613C53.9039 36.968 53.9883 37.2685 54.1467 37.5311L53.3897 38.288C49.7679 33.5695 43.0068 32.6804 38.2882 36.3022C33.5697 39.924 32.6806 46.6852 36.3024 51.4038C39.7211 55.8577 45.9879 56.9381 50.7006 53.8861L52.0008 55.1863L52.61 55.7954L56.078 59.2635C56.9601 60.1455 58.39 60.1455 59.2721 59.2635C60.1541 58.3815 60.1541 56.9515 59.2721 56.0694L55.804 52.6014L55.1949 51.9922L53.8947 50.692C56.2027 47.1369 56.2027 42.5566 53.8947 39.0015L54.7563 38.1398C55.0187 38.2983 55.3191 38.3828 55.6257 38.3845ZM55.6257 35.7997C56.1016 35.7997 56.4873 36.1854 56.4873 36.6613C56.4873 37.1372 56.1016 37.5229 55.6257 37.5229C55.1498 37.5229 54.764 37.1372 54.764 36.6613C54.764 36.1854 55.1498 35.7997 55.6257 35.7997ZM58.6629 56.6786C59.2147 57.218 59.2247 58.1026 58.6854 58.6543C58.146 59.2061 57.2614 59.2162 56.7096 58.6768C56.7021 58.6694 56.6946 58.6619 56.6872 58.6543L53.2191 55.1863L55.1949 53.2106L58.6629 56.6786ZM54.5857 52.6014L52.61 54.5771L51.4175 53.3846C51.4782 53.3381 51.5351 53.2868 51.595 53.239C51.6549 53.1912 51.7242 53.1339 51.7884 53.08C51.8828 53.0007 51.9758 52.9206 52.0671 52.8383C52.1141 52.7952 52.1589 52.7522 52.205 52.7091C52.3816 52.5437 52.5527 52.3726 52.7181 52.196C52.7612 52.1499 52.8043 52.1051 52.8473 52.0581C52.9296 51.9668 53.0098 51.8737 53.089 51.7794C53.143 51.7156 53.196 51.6512 53.248 51.586C53.2954 51.5265 53.3467 51.4696 53.3932 51.4089L54.5857 52.6014ZM52.915 50.6003C52.7793 50.7898 52.6393 50.9755 52.4915 51.1543C52.4484 51.2064 52.4023 51.2568 52.3579 51.3081C52.2261 51.4615 52.09 51.6102 51.9495 51.7544C51.8884 51.8176 51.8262 51.8798 51.763 51.9409C51.6194 52.0814 51.4706 52.2175 51.3167 52.3494C51.2654 52.3924 51.215 52.4394 51.1629 52.4829C50.9841 52.6307 50.7984 52.7707 50.6088 52.9064C46.1491 56.0925 39.9508 55.06 36.7646 50.6003C33.5785 46.1405 34.611 39.9422 39.0708 36.7561C43.5306 33.5699 49.7288 34.6024 52.915 39.0622C55.3804 42.5131 55.3804 47.1493 52.915 50.6003Z" fill="white" stroke="white" stroke-width="0.2"/>
</svg>
