<svg width="94" height="94" viewBox="0 0 94 94" fill="none" xmlns="http://www.w3.org/2000/svg">
<circle cx="47" cy="47" r="47" fill="#ECF4FC"/>
<rect x="25.8501" y="21.15" width="41.125" height="51.7" rx="5" fill="#24578B"/>
<rect x="39.9502" y="38.775" width="8.225" height="1.175" rx="0.5875" fill="white"/>
<rect x="39.9502" y="50.525" width="12.925" height="1.175" rx="0.5875" fill="white"/>
<rect x="39.9502" y="47" width="12.925" height="1.175" rx="0.5875" fill="white"/>
<rect x="39.9502" y="54.05" width="12.925" height="1.175" rx="0.5875" fill="white"/>
<rect x="39.9502" y="42.3" width="5.875" height="1.175" rx="0.5875" fill="white"/>
<g clip-path="url(#clip0)">
<path d="M52.2326 39.7425L51.3513 39.4524C51.2493 39.4194 51.1784 39.312 51.1784 39.1927C51.1784 39.043 51.2861 38.9219 51.4191 38.9219H51.9601C52.0596 38.9219 52.1575 38.9558 52.2391 39.0182C52.2889 39.0559 52.3558 39.0467 52.3982 38.9999L52.6822 38.6878C52.7401 38.6244 52.732 38.5189 52.6675 38.4629C52.4676 38.2866 52.2179 38.1884 51.9617 38.1875V37.7469C51.9617 37.6661 51.9029 37.6 51.8311 37.6H51.57C51.4982 37.6 51.4395 37.6661 51.4395 37.7469V38.1875H51.4191C50.8993 38.1875 50.4815 38.6896 50.5297 39.2854C50.5639 39.7085 50.8512 40.0528 51.2134 40.1721L52.0498 40.4475C52.1518 40.4815 52.2228 40.588 52.2228 40.7073C52.2228 40.8569 52.1151 40.9781 51.9821 40.9781H51.4411C51.3416 40.9781 51.2436 40.9441 51.162 40.8817C51.1123 40.8441 51.0454 40.8533 51.0029 40.9001L50.719 41.2122C50.661 41.2755 50.6692 41.3811 50.7337 41.4371C50.9336 41.6133 51.1833 41.7116 51.4395 41.7125V42.1531C51.4395 42.2339 51.4982 42.3 51.57 42.3H51.8311C51.9029 42.3 51.9617 42.2339 51.9617 42.1531V41.7106C52.3419 41.7024 52.6985 41.4481 52.8242 41.0433C52.9996 40.4778 52.705 39.8977 52.2326 39.7425Z" fill="white"/>
</g>
<rect x="35.75" y="33.4" width="21.325" height="26.025" rx="1.5" stroke="white"/>
<defs>
<clipPath id="clip0">
<rect width="2.35" height="4.7" fill="white" transform="translate(50.5249 37.6)"/>
</clipPath>
</defs>
</svg>
