<svg width="94" height="94" viewBox="0 0 94 94" fill="none" xmlns="http://www.w3.org/2000/svg">
<path d="M94 47C94 72.9574 72.9574 94 47 94C21.0426 94 0 72.9574 0 47C0 21.0426 21.0426 0 47 0C72.9574 0 94 21.0426 94 47Z" fill="#ECF4FC"/>
<rect x="27" y="21.15" width="41.125" height="51.7" rx="5" fill="#24578B"/>
<path d="M39.9428 60.5382C40.864 60.5376 41.7709 60.3042 42.5832 59.8587C43.3955 59.4131 44.0882 58.7692 44.6 57.9837H50.5302C50.6954 57.9837 50.8538 57.9165 50.9706 57.7967C51.0874 57.6769 51.153 57.5145 51.153 57.3451C51.153 57.1758 51.0874 57.0133 50.9706 56.8936C50.8538 56.7738 50.6954 56.7065 50.5302 56.7065H45.2209C45.3652 56.2936 45.4626 55.8651 45.5112 55.4293H45.5479C45.9093 55.4309 46.2633 55.3246 46.5667 55.1234C46.8701 54.9221 47.1097 54.6345 47.2564 54.2959C47.403 53.9572 47.4503 53.5821 47.3924 53.2163C47.3345 52.8506 47.174 52.51 46.9305 52.2363C47.174 51.9625 47.3345 51.622 47.3924 51.2562C47.4503 50.8904 47.403 50.5153 47.2564 50.1767C47.1097 49.838 46.8701 49.5505 46.5667 49.3492C46.2633 49.1479 45.9093 49.0416 45.5479 49.0432V48.2188C46.5067 47.3952 47.2814 46.3695 47.8192 45.2116H56.1354V47.1274C56.1354 47.2968 56.201 47.4592 56.3178 47.579C56.4346 47.6987 56.593 47.766 56.7582 47.766C56.9233 47.766 57.0817 47.6987 57.1985 47.579C57.3153 47.4592 57.3809 47.2968 57.3809 47.1274V44.573C57.3809 44.4036 57.3153 44.2412 57.1985 44.1214C57.0817 44.0017 56.9233 43.9344 56.7582 43.9344H48.2882C48.4694 43.3105 48.583 42.668 48.627 42.0186H54.267C54.4322 42.0186 54.5906 41.9513 54.7074 41.8315C54.8242 41.7118 54.8898 41.5493 54.8898 41.38V38.8255C54.8898 38.6562 54.8242 38.4937 54.7074 38.374C54.5906 38.2542 54.4322 38.1869 54.267 38.1869C54.1018 38.1869 53.9434 38.2542 53.8266 38.374C53.7098 38.4937 53.6442 38.6562 53.6442 38.8255V40.7414H48.6376C48.5223 39.068 47.9463 37.4625 46.9766 36.1115C46.9288 36.0423 46.8682 35.9835 46.798 35.9386C46.7279 35.8937 46.6498 35.8636 46.5682 35.85C46.4866 35.8364 46.4032 35.8395 46.3228 35.8593C46.2425 35.8791 46.1667 35.9151 46.1001 35.9652C46.0334 36.0153 45.9771 36.0785 45.9345 36.1511C45.8919 36.2238 45.8638 36.3044 45.8519 36.3882C45.84 36.4721 45.8445 36.5576 45.8651 36.6396C45.8857 36.7217 45.9221 36.7988 45.972 36.8663C46.6905 37.8702 47.1588 39.0389 47.3363 40.2708C47.5138 41.5027 47.395 42.7603 46.9903 43.9344H44.9251C44.7599 43.9344 44.6015 44.0017 44.4847 44.1214C44.3679 44.2412 44.3023 44.4036 44.3023 44.573C44.3023 44.7424 44.3679 44.9048 44.4847 45.0246C44.6015 45.1443 44.7599 45.2116 44.9251 45.2116H46.4024C45.9239 46.0596 45.2923 46.8064 44.5415 47.4122C44.467 47.4719 44.4068 47.5482 44.3654 47.6353C44.324 47.7223 44.3024 47.8179 44.3023 47.9148V49.0432H42.4339V46.1963C42.4323 45.7655 42.514 45.3386 42.6743 44.9403C42.8347 44.5421 43.0705 44.1804 43.3681 43.8763C43.9378 43.2921 44.3419 42.5601 44.5371 41.7587L44.9033 40.2579C44.9323 40.1394 44.9276 40.0149 44.8896 39.8991C44.8517 39.7832 44.7821 39.681 44.6892 39.6045C44.5963 39.528 44.484 39.4804 44.3655 39.4674C44.247 39.4544 44.1274 39.4766 44.0208 39.5312L41.9357 40.6028L40.385 39.0126C40.2682 38.8929 40.1098 38.8257 39.9447 38.8257C39.7795 38.8257 39.6211 38.8929 39.5043 39.0126L37.9536 40.6028L35.8616 39.5312C35.755 39.4766 35.6354 39.4544 35.5169 39.4674C35.3985 39.4804 35.2861 39.528 35.1932 39.6045C35.1003 39.681 35.0308 39.7832 34.9928 39.8991C34.9549 40.0149 34.9501 40.1394 34.9791 40.2579L35.3484 41.7733C35.5474 42.5814 35.9564 43.319 36.5318 43.9076C37.1239 44.5211 37.4547 45.3504 37.4516 46.2136V49.0432H35.5832V47.9148C35.5832 47.8179 35.5616 47.7223 35.5202 47.6353C35.4787 47.5482 35.4185 47.4719 35.3441 47.4122C33.7997 46.1756 32.7914 44.3659 32.5367 42.3737C32.282 40.3815 32.8013 38.3664 33.9825 36.7634C35.1638 35.1603 36.9124 34.0976 38.8509 33.8047C40.7895 33.5118 42.7626 34.0121 44.3447 35.1976C44.478 35.2977 44.6446 35.3394 44.8079 35.3135C44.9711 35.2877 45.1177 35.1963 45.2153 35.0597C45.313 34.923 45.3536 34.7521 45.3284 34.5847C45.3032 34.4173 45.2141 34.267 45.0808 34.1669C43.2569 32.7953 40.9841 32.2049 38.7433 32.5207C36.5025 32.8365 34.4693 34.0336 33.0738 35.8589C31.6783 37.6842 31.0299 39.9945 31.2658 42.3012C31.5017 44.6079 32.6033 46.73 34.3377 48.2188V49.0432C33.8421 49.0432 33.3669 49.2451 33.0165 49.6044C32.6661 49.9637 32.4693 50.451 32.4693 50.9591C32.4693 51.4672 32.6661 51.9545 33.0165 52.3137C33.3669 52.673 33.8421 52.8749 34.3377 52.8749H45.5479C45.7131 52.8749 45.8715 52.9422 45.9883 53.0619C46.1051 53.1817 46.1707 53.3441 46.1707 53.5135C46.1707 53.6829 46.1051 53.8453 45.9883 53.965C45.8715 54.0848 45.7131 54.1521 45.5479 54.1521H34.3377C34.1725 54.1521 34.0141 54.2194 33.8973 54.3391C33.7805 54.4589 33.7149 54.6213 33.7149 54.7907C33.7149 54.9601 33.7805 55.1225 33.8973 55.2423C34.0141 55.362 34.1725 55.4293 34.3377 55.4293H34.3744C34.5289 56.8334 35.1818 58.1301 36.2087 59.0723C37.2357 60.0145 38.5648 60.5362 39.9428 60.5382ZM37.3825 42.9714C36.9809 42.5534 36.6957 42.0328 36.5567 41.4636L36.5162 41.295L37.796 41.9547C37.913 42.0145 38.0453 42.0351 38.1743 42.0136C38.3033 41.9921 38.4224 41.9294 38.5147 41.8346L39.9428 40.3671L41.3708 41.8315C41.4632 41.9263 41.5823 41.9889 41.7113 42.0104C41.8403 42.032 41.9726 42.0114 42.0895 41.9515L43.3681 41.295L43.3308 41.4489C43.191 42.0268 42.9006 42.5549 42.4906 42.9765C42.0768 43.3983 41.7486 43.9 41.5251 44.4527C41.3016 45.0054 41.1871 45.598 41.1884 46.1963V49.0432H38.6972V46.2142C38.6978 45.6114 38.5819 45.0145 38.3562 44.4579C38.1306 43.9013 37.7996 43.3961 37.3825 42.9714ZM33.7149 50.9591C33.7149 50.7897 33.7805 50.6273 33.8973 50.5075C34.0141 50.3877 34.1725 50.3205 34.3377 50.3205H45.5479C45.7131 50.3205 45.8715 50.3877 45.9883 50.5075C46.1051 50.6273 46.1707 50.7897 46.1707 50.9591C46.1707 51.1284 46.1051 51.2909 45.9883 51.4106C45.8715 51.5304 45.7131 51.5977 45.5479 51.5977H34.3377C34.1725 51.5977 34.0141 51.5304 33.8973 51.4106C33.7805 51.2909 33.7149 51.1284 33.7149 50.9591ZM44.2581 55.4293C44.1946 55.8723 44.0661 56.3029 43.877 56.7065H41.1884C41.0232 56.7065 40.8648 56.7738 40.748 56.8936C40.6312 57.0133 40.5656 57.1758 40.5656 57.3451C40.5656 57.5145 40.6312 57.6769 40.748 57.7967C40.8648 57.9165 41.0232 57.9837 41.1884 57.9837H42.9857C42.4112 58.5617 41.6916 58.9651 40.907 59.149C40.1223 59.3329 39.3033 59.2902 38.5409 59.0255C37.7786 58.7609 37.1027 58.2847 36.5883 57.6498C36.074 57.015 35.7414 56.2463 35.6275 55.4293H44.2581Z" fill="white"/>
<circle cx="60.7723" cy="31.953" r="2.89146" stroke="white"/>
<rect x="60.2881" y="28.5615" width="0.968988" height="3.87595" rx="0.484494" fill="white"/>
<rect x="60.2881" y="32.4375" width="0.968988" height="3.87595" rx="0.484494" transform="rotate(-90 60.2881 32.4375)" fill="white"/>
<rect x="51.0981" y="51.3483" width="12.5658" height="2.87595" rx="1.43798" stroke="white"/>
<rect x="53.7471" y="63.6873" width="11.1434" height="0.484494" rx="0.242247" stroke="white" stroke-width="0.484494"/>
<rect x="51.8091" y="60.7805" width="13.0813" height="0.484494" rx="0.242247" stroke="white" stroke-width="0.484494"/>
<rect x="55.6851" y="57.8736" width="9.20539" height="0.484494" rx="0.242247" stroke="white" stroke-width="0.484494"/>
<rect x="61.0146" y="37.5247" width="11.1434" height="0.484494" rx="0.242247" transform="rotate(90 61.0146 37.5247)" stroke="white" stroke-width="0.484494"/>
</svg>
