<svg width="174" height="42" viewBox="0 0 174 42" fill="none" xmlns="http://www.w3.org/2000/svg">
<path d="M49.6677 17.2186H45.4629V14.1494H57.709V17.2186H53.5349V27.8073H49.6677V17.2186Z" fill="#294B7B"/>
<path d="M67.008 18.2611C67.9288 19.059 68.3891 20.2867 68.3891 21.9441V27.8062H64.921V26.4251C64.3992 27.4379 63.3557 27.9597 61.7904 27.9597C60.9617 27.9597 60.2558 27.8062 59.6726 27.53C59.0588 27.2538 58.6291 26.8548 58.3222 26.3637C58.0153 25.8726 57.8618 25.3202 57.8618 24.7064C57.8618 23.6935 58.2608 22.9262 59.0281 22.3738C59.7954 21.8213 60.9924 21.5451 62.5884 21.5451H64.7061C64.6447 20.4402 63.8774 19.857 62.4656 19.857C61.9438 19.857 61.4528 19.9491 60.931 20.1026C60.4092 20.256 59.9796 20.5016 59.6113 20.7778L58.3529 18.2611C58.936 17.8621 59.6419 17.5551 60.5013 17.3403C61.33 17.1255 62.1894 17.0027 63.0181 17.0027C64.7368 17.0641 66.0566 17.4631 67.008 18.2611ZM63.9695 25.3509C64.3071 25.136 64.522 24.8291 64.6754 24.4301V23.5094H63.0794C62.0052 23.5094 61.4528 23.8777 61.4528 24.5836C61.4528 24.9212 61.5755 25.1667 61.8211 25.3509C62.0666 25.535 62.4042 25.6578 62.8339 25.6578C63.2636 25.6578 63.6319 25.5657 63.9695 25.3509Z" fill="#294B7B"/>
<path d="M77.4438 27.8392L75.5409 25.0769L73.5153 27.8392H69.4946L73.5153 22.5295L69.6174 17.2505H73.7915L75.6637 19.9207L77.628 17.2505H81.5565L77.628 22.4067L81.6793 27.8392H77.4438Z" fill="#294B7B"/>
<path d="M86.835 17.1572V20.165H92.8813V23.1421H86.835V27.838H82.9678V14.1494H93.6792V17.1265H86.835V17.1572Z" fill="#294B7B"/>
<path d="M100.156 17.4347C100.769 17.1892 101.445 17.0664 102.243 17.0664V20.4118C101.905 20.3811 101.629 20.3504 101.414 20.3504C100.616 20.3504 100.002 20.5653 99.5418 20.995C99.0814 21.4247 98.8666 22.0692 98.8666 22.9593V27.8086H95.1528V17.2506H98.6824V18.5089C99.0507 18.0179 99.5418 17.6802 100.156 17.4347Z" fill="#294B7B"/>
<path d="M114.427 23.481H106.723C106.877 24.0335 107.183 24.4325 107.644 24.7394C108.104 25.0463 108.657 25.1691 109.332 25.1691C109.854 25.1691 110.283 25.1077 110.652 24.9542C111.02 24.8008 111.388 24.5859 111.787 24.2483L113.752 26.274C112.739 27.4096 111.235 27.9927 109.24 27.9927C108.012 27.9927 106.907 27.7472 105.986 27.2868C105.035 26.8264 104.329 26.1819 103.807 25.3225C103.286 24.4938 103.04 23.5424 103.04 22.4989C103.04 21.4553 103.286 20.5346 103.777 19.7059C104.268 18.8772 104.974 18.2327 105.864 17.7723C106.754 17.3119 107.736 17.0664 108.841 17.0664C109.884 17.0664 110.866 17.2812 111.726 17.7109C112.585 18.1406 113.26 18.7852 113.752 19.6138C114.243 20.4425 114.488 21.4247 114.488 22.5603C114.457 22.5909 114.457 22.8979 114.427 23.481ZM107.398 20.197C106.999 20.5346 106.784 20.9643 106.662 21.5167H110.989C110.897 20.9643 110.652 20.5039 110.253 20.197C109.854 19.8594 109.393 19.7059 108.81 19.7059C108.227 19.7059 107.767 19.8594 107.398 20.197Z" fill="#294B7B"/>
<path d="M126.95 23.481H119.246C119.399 24.0335 119.706 24.4325 120.167 24.7394C120.627 25.0463 121.18 25.1691 121.855 25.1691C122.377 25.1691 122.806 25.1077 123.175 24.9542C123.543 24.8008 123.911 24.5859 124.31 24.2483L126.274 26.274C125.231 27.4096 123.758 27.9927 121.763 27.9927C120.535 27.9927 119.43 27.7472 118.509 27.2868C117.558 26.8264 116.852 26.1819 116.33 25.3225C115.809 24.4938 115.563 23.5424 115.563 22.4989C115.563 21.4553 115.809 20.5346 116.3 19.7059C116.791 18.8772 117.497 18.2327 118.387 17.7723C119.277 17.3119 120.259 17.0664 121.364 17.0664C122.407 17.0664 123.389 17.2812 124.249 17.7109C125.108 18.1406 125.783 18.7852 126.274 19.6138C126.766 20.4425 127.011 21.4247 127.011 22.5603C127.011 22.5909 126.98 22.8979 126.95 23.481ZM119.921 20.197C119.522 20.5346 119.307 20.9643 119.185 21.5167H123.512C123.42 20.9643 123.175 20.5039 122.776 20.197C122.377 19.8594 121.916 19.7059 121.333 19.7059C120.781 19.7059 120.32 19.8594 119.921 20.197Z" fill="#294B7B"/>
<path d="M131.983 27.0721C130.878 26.4582 130.019 25.6295 129.405 24.586C128.791 23.5118 128.454 22.3455 128.454 20.9951C128.454 19.6753 128.761 18.4783 129.405 17.4041C130.019 16.3299 130.909 15.5012 132.014 14.9181C133.119 14.3349 134.346 13.9973 135.728 13.9973C136.802 13.9973 137.784 14.1815 138.643 14.5498C139.533 14.9181 140.27 15.4398 140.915 16.1457L139.656 17.3734C138.643 16.2992 137.354 15.7468 135.82 15.7468C134.807 15.7468 133.886 15.9616 133.057 16.422C132.229 16.8824 131.584 17.4962 131.124 18.2942C130.663 19.0922 130.418 19.9822 130.418 20.9644C130.418 21.9465 130.663 22.8366 131.124 23.6346C131.584 24.4326 132.229 25.0771 133.057 25.5068C133.886 25.9672 134.807 26.182 135.82 26.182C137.354 26.182 138.613 25.6295 139.656 24.5553L140.915 25.783C140.301 26.4889 139.533 27.0107 138.643 27.379C137.753 27.7473 136.771 27.9314 135.697 27.9314C134.316 27.9928 133.088 27.6859 131.983 27.0721Z" fill="#294B7B"/>
<path d="M144.659 27.2539C143.83 26.7935 143.186 26.1797 142.725 25.3817C142.265 24.5837 142.02 23.6629 142.02 22.6501C142.02 21.6373 142.265 20.7165 142.725 19.9185C143.186 19.1205 143.83 18.5067 144.659 18.0463C145.488 17.5859 146.408 17.3711 147.421 17.3711C148.434 17.3711 149.386 17.5859 150.184 18.0463C150.982 18.5067 151.626 19.1205 152.086 19.9185C152.547 20.7165 152.792 21.6373 152.792 22.6501C152.792 23.6629 152.547 24.5837 152.086 25.3817C151.626 26.1797 150.982 26.8242 150.184 27.2539C149.355 27.7143 148.434 27.9291 147.421 27.9291C146.408 27.9291 145.488 27.7143 144.659 27.2539ZM149.201 25.8421C149.723 25.5351 150.153 25.1055 150.429 24.553C150.736 24.0005 150.89 23.356 150.89 22.6501C150.89 21.9442 150.736 21.2997 150.429 20.7472C150.122 20.1947 149.723 19.7651 149.201 19.4581C148.68 19.1512 148.066 18.9978 147.421 18.9978C146.746 18.9978 146.163 19.1512 145.641 19.4581C145.119 19.7651 144.69 20.1947 144.383 20.7472C144.076 21.2997 143.922 21.9442 143.922 22.6501C143.922 23.356 144.076 24.0005 144.383 24.553C144.69 25.1055 145.119 25.5351 145.641 25.8421C146.163 26.149 146.777 26.3024 147.421 26.3024C148.097 26.3024 148.68 26.149 149.201 25.8421Z" fill="#294B7B"/>
<path d="M158.624 17.8315C159.268 17.5246 160.035 17.3711 160.956 17.3711V19.1819C160.864 19.1819 160.711 19.1512 160.526 19.1512C159.514 19.1512 158.716 19.4581 158.132 20.072C157.549 20.6858 157.273 21.5452 157.273 22.6501V27.8063H155.401V17.4632H157.212V19.2126C157.519 18.6295 158.01 18.1691 158.624 17.8315Z" fill="#294B7B"/>
<path d="M171.453 18.0463C172.251 18.476 172.864 19.1205 173.325 19.8878C173.785 20.6858 174 21.6066 174 22.6501C174 23.6936 173.785 24.6144 173.325 25.4124C172.864 26.2104 172.251 26.8242 171.453 27.2846C170.655 27.7143 169.765 27.9598 168.752 27.9598C168.015 27.9598 167.34 27.8063 166.726 27.5301C166.112 27.2539 165.59 26.8242 165.161 26.2717V31.6121H163.258V17.4632H165.069V19.0898C165.498 18.5067 166.02 18.077 166.665 17.8008C167.309 17.4939 168.015 17.3711 168.782 17.3711C169.734 17.3711 170.655 17.5859 171.453 18.0463ZM170.378 25.8421C170.9 25.5351 171.33 25.1055 171.637 24.553C171.944 24.0005 172.097 23.356 172.097 22.6501C172.097 21.9442 171.944 21.2997 171.637 20.7472C171.33 20.1947 170.9 19.7651 170.378 19.4581C169.857 19.1512 169.243 18.9978 168.598 18.9978C167.954 18.9978 167.371 19.1512 166.818 19.4581C166.296 19.7651 165.867 20.1947 165.56 20.7472C165.253 21.2997 165.099 21.9135 165.099 22.6501C165.099 23.356 165.253 24.0005 165.56 24.553C165.867 25.1055 166.266 25.5351 166.818 25.8421C167.371 26.149 167.954 26.3024 168.598 26.3024C169.243 26.3024 169.857 26.149 170.378 25.8421Z" fill="#294B7B"/>
<path d="M37.8201 17.8643L23.3949 3.43914C22.4128 2.457 21.093 1.90454 19.6812 1.90454C18.2694 1.90454 16.9496 2.457 15.9675 3.43914L1.54227 17.8643C-0.51409 19.9207 -0.51409 23.2661 1.54227 25.3225L15.9675 39.7477C16.9803 40.7605 18.3307 41.2823 19.6812 41.2823C21.0316 41.2823 22.3821 40.7605 23.3949 39.7477L37.8201 25.3225C38.8329 24.3096 39.3547 22.9592 39.3547 21.6087C39.3854 20.2583 38.8636 18.9079 37.8201 17.8643ZM36.1321 23.6037L21.7069 38.0289C21.1851 38.5814 20.4485 38.8576 19.6812 38.8576C18.9139 38.8576 18.208 38.5507 17.6555 38.0289L3.23032 23.6037C2.12542 22.4988 2.12542 20.688 3.23032 19.5524L17.6555 5.12719C18.208 4.57474 18.9139 4.29851 19.6812 4.29851C20.4485 4.29851 21.1544 4.60543 21.7069 5.12719L36.1321 19.5524C37.237 20.688 37.237 22.4988 36.1321 23.6037Z" fill="#2B223E"/>
<path d="M30.2697 7.03076L30.3311 8.25844C33.2468 8.25844 33.5845 10.7445 33.1855 12.7702C32.4182 16.6987 28.8272 19.0313 22.873 24.0955C20.2949 26.2746 17.9623 30.1111 20.7245 34.8069C21.7988 32.5971 25.1442 29.9883 30.3311 25.5073C35.3646 21.149 37.0526 18.663 37.2061 14.4889C37.3596 10.591 34.7814 7.49114 30.2697 7.03076Z" fill="#24578B"/>
<path d="M24.7763 17.5872C16.6737 24.5849 9.24623 28.36 8.63239 33.4242C8.11063 37.5983 11.5481 40.3913 15.1084 38.9181L15.9371 39.7467C10.2591 42.7545 1.88017 37.9359 2.893 29.4956C3.84445 21.5157 12.4382 16.6357 20.7864 10.2518C25.206 6.845 27.2317 4.51242 26.004 2.33329C25.3595 1.19769 23.4566 0.860081 21.4002 2.17983C20.8785 1.99568 20.326 1.90361 19.7736 1.90361C23.3952 -1.19628 27.3238 0.0620912 28.9811 1.65807C31.682 4.2055 32.879 10.5587 24.7763 17.5872Z" fill="#24578B"/>
</svg>
