

<svg display="none" xmlns="http://www.w3.org/2000/svg">
    <symbol id="fb" viewBox="0 0 36 35">
        <path d="M10.3823 5C7.95468 5 6 6.95468 6 9.38226V24.6178C6 27.0453 7.95468 29 10.3823 29H18.6398V19.6175H16.1588V16.2395H18.6398V13.3535C18.6398 11.0861 20.1057 9.00426 23.4825 9.00426C24.8497 9.00426 25.8608 9.13551 25.8608 9.13551L25.7813 12.29C25.7813 12.29 24.7501 12.2803 23.625 12.2803C22.4073 12.2803 22.212 12.8414 22.212 13.7728V16.2395H25.878L25.7183 19.6175H22.212V29H25.6177C28.0453 29 30 27.0454 30 24.6178V9.38228C30 6.9547 28.0453 5.00002 25.6177 5.00002H10.3822L10.3823 5Z"></path>
    </symbol>
</svg>

<svg display="none" xmlns="http://www.w3.org/2000/svg">
    <symbol id="inst" viewBox="0 0 36 35">
        <path d="M17.9968 13.9981C15.7933 13.9981 13.9951 15.7963 13.9951 17.9998C13.9951 20.2032 15.7933 22.0014 17.9968 22.0014C20.2002 22.0014 21.9984 20.2032 21.9984 17.9998C21.9984 15.7963 20.2002 13.9981 17.9968 13.9981ZM29.9987 17.9998C29.9987 16.3427 30.0137 14.7006 29.9206 13.0465C29.8275 11.1253 29.3893 9.42014 27.9843 8.01522C26.5764 6.60729 24.8743 6.17201 22.953 6.07894C21.2959 5.98588 19.6539 6.00089 17.9998 6.00089C16.3427 6.00089 14.7006 5.98588 13.0465 6.07894C11.1253 6.17201 9.42014 6.61029 8.01522 8.01522C6.60729 9.42314 6.17201 11.1253 6.07894 13.0465C5.98588 14.7036 6.00089 16.3457 6.00089 17.9998C6.00089 19.6539 5.98588 21.2989 6.07894 22.953C6.17201 24.8743 6.61029 26.5794 8.01522 27.9843C9.42314 29.3923 11.1253 29.8275 13.0465 29.9206C14.7036 30.0137 16.3457 29.9987 17.9998 29.9987C19.6569 29.9987 21.2989 30.0137 22.953 29.9206C24.8743 29.8275 26.5794 29.3893 27.9843 27.9843C29.3923 26.5764 29.8275 24.8743 29.9206 22.953C30.0167 21.2989 29.9987 19.6569 29.9987 17.9998ZM17.9968 24.1568C14.5895 24.1568 11.8397 21.407 11.8397 17.9998C11.8397 14.5925 14.5895 11.8427 17.9968 11.8427C21.404 11.8427 24.1538 14.5925 24.1538 17.9998C24.1538 21.407 21.404 24.1568 17.9968 24.1568ZM24.406 13.0285C23.6105 13.0285 22.968 12.3861 22.968 11.5906C22.968 10.795 23.6105 10.1526 24.406 10.1526C25.2015 10.1526 25.8439 10.795 25.8439 11.5906C25.8442 11.7795 25.8071 11.9666 25.735 12.1411C25.6628 12.3157 25.5569 12.4743 25.4233 12.6079C25.2897 12.7414 25.1311 12.8474 24.9565 12.9195C24.782 12.9917 24.5949 13.0287 24.406 13.0285Z" ></path>
    </symbol>
</svg>

<svg display="none" xmlns="http://www.w3.org/2000/svg">
    <symbol id="tlg" viewBox="0 0 24 24">
        <path d="M19.92 5.08548L5.7471 10.3803C4.77986 10.7567 4.78545 11.2794 5.56964 11.5125L9.2084 12.6122L17.6274 7.46609C18.0255 7.23144 18.3892 7.35767 18.0903 7.61478L11.2692 13.5787H11.2676L11.2692 13.5795L11.0182 17.2131C11.3859 17.2131 11.5482 17.0497 11.7544 16.8569L13.5218 15.1919L17.1982 17.8226C17.876 18.1843 18.3628 17.9984 18.5315 17.2147L20.9448 6.19602C21.1918 5.23649 20.5667 4.80203 19.92 5.08548Z"></path>
    </symbol>
</svg>

<svg display="none" xmlns="http://www.w3.org/2000/svg">
    <symbol id="wtsapp" viewBox="0 0 24 24">
        <path d="M12.5 19C11.2083 19 9.99479 18.6875 8.85938 18.0625L4 20L5.9375 15.1406C5.3125 14.0052 5 12.7917 5 11.5C5 10.4792 5.19792 9.50781 5.59375 8.58594C5.98958 7.66406 6.52344 6.86719 7.19531 6.19531C7.86719 5.52344 8.66406 4.98958 9.58594 4.59375C10.5078 4.19792 11.4792 4 12.5 4C13.5208 4 14.4922 4.19792 15.4141 4.59375C16.3359 4.98958 17.1328 5.52344 17.8047 6.19531C18.4766 6.86719 19.0104 7.66406 19.4062 8.58594C19.8021 9.50781 20 10.4792 20 11.5C20 12.5208 19.8021 13.4922 19.4062 14.4141C19.0104 15.3359 18.4766 16.1328 17.8047 16.8047C17.1328 17.4766 16.3359 18.0104 15.4141 18.4062C14.4922 18.8021 13.5208 19 12.5 19ZM15 13H14L13.4375 13.5C12.9688 13.375 12.3932 12.9714 11.7109 12.2891C11.0286 11.6068 10.625 11.0312 10.5 10.5625L11 10V9C11 8.82292 10.9375 8.64583 10.8125 8.46875C10.6875 8.29167 10.5495 8.16406 10.3984 8.08594C10.2474 8.00781 10.1406 8 10.0781 8.0625L9.34375 8.79688C8.9375 9.20312 8.8776 9.83594 9.16406 10.6953C9.45052 11.5547 9.9974 12.388 10.8047 13.1953C11.612 14.0026 12.4453 14.5495 13.3047 14.8359C14.1641 15.1224 14.7969 15.0625 15.2031 14.6562L15.9375 13.9219C16 13.8594 15.9922 13.7526 15.9141 13.6016C15.8359 13.4505 15.7083 13.3125 15.5312 13.1875C15.3542 13.0625 15.1771 13 15 13Z" ></path>
    </symbol>
</svg>